<?xml version="1.0" encoding="UTF-8"?>
<svg width="18px" height="30px" viewBox="0 0 18 30" version="1.1" xmlns="http://www.w3.org/2000/svg" xmlns:xlink="http://www.w3.org/1999/xlink">
    <!-- Generator: Sketch 63.1 (92452) - https://sketch.com -->
    <title>Artboard</title>
    <desc>Created with Sketch.</desc>
    <g id="Artboard" stroke="none" stroke-width="1" fill="none" fill-rule="evenodd">
        <g id="iphone" fill="#B3B3C3" fill-rule="nonzero">
            <path d="M14.1662,0 L4.16671,0 C1.86996,0 -1.77635684e-15,1.86996 -1.77635684e-15,4.16671 L-1.77635684e-15,25.8333 C-1.77635684e-15,28.13 1.86996,30 4.16671,30 L14.1662,30 C16.463,30 18.3329,28.13 18.3329,25.8333 L18.3329,4.16671 C18.3329,1.86849 16.463,0 14.1662,0 Z M16.6668,25.8318 C16.6668,27.2105 15.5449,28.3324 14.1662,28.3324 L4.16671,28.3324 C2.78807,28.3324 1.6661,27.2105 1.6661,25.8318 L1.6661,4.16671 C1.6661,2.78807 2.78807,1.6661 4.16671,1.6661 L14.1662,1.6661 C15.5449,1.6661 16.6668,2.78807 16.6668,4.16671 L16.6668,25.8318 L16.6668,25.8318 Z" id="Shape"></path>
            <path d="M9.16646,27.4979 C10.0866,27.4979 10.8326,26.752 10.8326,25.8318 C10.8326,24.9116 10.0866,24.1657 9.16646,24.1657 C8.2463,24.1657 7.50037,24.9116 7.50037,25.8318 C7.50037,26.752 8.2463,27.4979 9.16646,27.4979 Z" id="Path"></path>
            <path d="M10.8326,2.49915 L7.4989,2.49915 C7.03837,2.49915 6.66585,2.87167 6.66585,3.33219 C6.66585,3.79272 7.03837,4.16524 7.4989,4.16524 L10.8326,4.16524 C11.2931,4.16524 11.6656,3.79272 11.6656,3.33219 C11.6656,2.87167 11.2931,2.49915 10.8326,2.49915 Z" id="Path"></path>
        </g>
    </g>
</svg>